<mxfile host="65bd71144e">
    <diagram id="OAejah4RlwYKssRU32tp" name="Page-1">
        <mxGraphModel dx="1076" dy="549" grid="1" gridSize="10" guides="1" tooltips="1" connect="1" arrows="1" fold="1" page="1" pageScale="1" pageWidth="1100" pageHeight="850" background="none" math="0" shadow="0">
            <root>
                <mxCell id="0"/>
                <mxCell id="1" parent="0"/>
                <mxCell id="110" value="&lt;font style=&quot;font-size: 24px;&quot;&gt;Abstract Factory Design Pattern&lt;/font&gt;" style="text;html=1;strokeColor=#BD7000;fillColor=#f0a30a;align=center;verticalAlign=middle;whiteSpace=wrap;rounded=0;movable=1;resizable=1;rotatable=1;deletable=1;editable=1;connectable=1;fontColor=#000000;container=0;" parent="1" vertex="1">
                    <mxGeometry x="29" y="20" width="370" height="30" as="geometry"/>
                </mxCell>
                <mxCell id="168" value="&lt;div style=&quot;color: rgb(204, 204, 204); background-color: rgb(31, 31, 31); font-family: Consolas, &amp;quot;Courier New&amp;quot;, monospace; font-size: 14px; line-height: 19px;&quot;&gt;A Pattern that provides an interface for creating objects in a superclass,&lt;/div&gt;&lt;div style=&quot;color: rgb(204, 204, 204); background-color: rgb(31, 31, 31); font-family: Consolas, &amp;quot;Courier New&amp;quot;, monospace; font-size: 14px; line-height: 19px;&quot;&gt;but allows subclasses to alter the type of objects that will be created.&lt;/div&gt;" style="text;html=1;align=left;verticalAlign=middle;resizable=0;points=[];autosize=1;strokeColor=none;fillColor=none;" vertex="1" parent="1">
                    <mxGeometry x="80" y="940" width="590" height="50" as="geometry"/>
                </mxCell>
                <mxCell id="169" value="Use" style="endArrow=open;endSize=12;dashed=1;html=1;movable=1;resizable=1;rotatable=1;deletable=1;editable=1;connectable=1;exitX=1;exitY=0.5;exitDx=0;exitDy=0;" edge="1" source="198" parent="1">
                    <mxGeometry width="160" relative="1" as="geometry">
                        <mxPoint x="250" y="1096.5" as="sourcePoint"/>
                        <mxPoint x="410.0000000000002" y="1096.5" as="targetPoint"/>
                    </mxGeometry>
                </mxCell>
                <mxCell id="170" value="" style="endArrow=block;dashed=1;endFill=0;endSize=12;html=1;movable=1;resizable=1;rotatable=1;deletable=1;editable=1;connectable=1;entryX=0;entryY=0.189;entryDx=0;entryDy=0;entryPerimeter=0;" edge="1" target="186" parent="1">
                    <mxGeometry width="160" relative="1" as="geometry">
                        <mxPoint x="570.0000000000002" y="1096.5" as="sourcePoint"/>
                        <mxPoint x="730" y="1096.5" as="targetPoint"/>
                    </mxGeometry>
                </mxCell>
                <mxCell id="171" value="create" style="edgeLabel;html=1;align=center;verticalAlign=middle;resizable=1;points=[];movable=1;rotatable=1;deletable=1;editable=1;connectable=1;container=0;" vertex="1" connectable="0" parent="170">
                    <mxGeometry x="-0.2711" y="1" relative="1" as="geometry">
                        <mxPoint as="offset"/>
                    </mxGeometry>
                </mxCell>
                <mxCell id="172" value="" style="endArrow=block;dashed=1;endFill=0;endSize=12;html=1;entryX=0.302;entryY=1.113;entryDx=0;entryDy=0;entryPerimeter=0;movable=1;resizable=1;rotatable=1;deletable=1;editable=1;connectable=1;exitX=0.177;exitY=-0.036;exitDx=0;exitDy=0;exitPerimeter=0;" edge="1" source="180" target="188" parent="1">
                    <mxGeometry width="160" relative="1" as="geometry">
                        <mxPoint x="810" y="1250" as="sourcePoint"/>
                        <mxPoint x="809.52" y="1162.652" as="targetPoint"/>
                    </mxGeometry>
                </mxCell>
                <mxCell id="173" value="Implement" style="edgeLabel;html=1;align=center;verticalAlign=middle;resizable=1;points=[];movable=1;rotatable=1;deletable=1;editable=1;connectable=1;container=0;" vertex="1" connectable="0" parent="172">
                    <mxGeometry x="-0.1765" relative="1" as="geometry">
                        <mxPoint as="offset"/>
                    </mxGeometry>
                </mxCell>
                <mxCell id="174" value="&lt;font style=&quot;&quot;&gt;&lt;br&gt;&lt;br&gt;&lt;div style=&quot;font-size: 14px; text-align: left;&quot;&gt;&lt;span style=&quot;background-color: initial;&quot;&gt;&lt;font color=&quot;#66b2ff&quot;&gt;Factory factory = new FactoryA();&lt;/font&gt;&lt;/span&gt;&lt;br&gt;&lt;/div&gt;&lt;div style=&quot;font-size: 14px; text-align: left;&quot;&gt;&lt;font style=&quot;background-color: initial;&quot; color=&quot;#33ff33&quot;&gt;IProduct p&lt;/font&gt;&lt;font style=&quot;background-color: initial;&quot; color=&quot;#ffffff&quot;&gt; =&lt;/font&gt;&lt;span style=&quot;background-color: initial;&quot;&gt;&amp;nbsp;&lt;/span&gt;&lt;span style=&quot;color: rgb(102, 178, 255);&quot;&gt;factory&lt;/span&gt;&lt;font style=&quot;background-color: initial;&quot; color=&quot;#66b2ff&quot;&gt;.CreateProduct();&lt;/font&gt;&lt;/div&gt;&lt;div style=&quot;text-align: left;&quot;&gt;&lt;br&gt;&lt;/div&gt;&lt;/font&gt;" style="text;strokeColor=none;align=center;fillColor=none;html=1;verticalAlign=middle;whiteSpace=wrap;rounded=0;fontColor=#FF66B3;movable=1;resizable=1;rotatable=1;deletable=1;editable=1;connectable=1;container=0;" vertex="1" parent="1">
                    <mxGeometry x="44" y="1170" width="340" height="60" as="geometry"/>
                </mxCell>
                <mxCell id="175" value="&lt;&lt;abstract&gt;&gt;&#10;Factory" style="swimlane;fontStyle=1;align=center;verticalAlign=top;childLayout=stackLayout;horizontal=1;startSize=40;horizontalStack=0;resizeParent=1;resizeParentMax=0;resizeLast=0;collapsible=1;marginBottom=0;fillColor=#1ba1e2;fontColor=#ffffff;strokeColor=#FFFFFF;movable=1;resizable=1;rotatable=1;deletable=1;editable=1;connectable=1;container=0;" vertex="1" parent="1">
                    <mxGeometry x="410" y="1060" width="170" height="78" as="geometry"/>
                </mxCell>
                <mxCell id="176" value="" style="line;strokeWidth=1;fillColor=none;align=left;verticalAlign=middle;spacingTop=-1;spacingLeft=3;spacingRight=3;rotatable=1;labelPosition=right;points=[];portConstraint=eastwest;strokeColor=inherit;movable=1;resizable=1;deletable=1;editable=1;connectable=1;container=0;" vertex="1" parent="175">
                    <mxGeometry y="40" width="170" height="8" as="geometry"/>
                </mxCell>
                <mxCell id="177" value="&lt;font color=&quot;#66b2ff&quot;&gt;+CreateProduct() :&lt;/font&gt; IProduct" style="text;html=1;align=center;verticalAlign=middle;resizable=1;points=[];autosize=1;strokeColor=none;fillColor=none;fontSize=12;fontColor=#33FF33;movable=1;rotatable=1;deletable=1;editable=1;connectable=1;" vertex="1" parent="175">
                    <mxGeometry y="48" width="170" height="30" as="geometry"/>
                </mxCell>
                <mxCell id="178" value="Extends" style="endArrow=block;endSize=16;endFill=0;html=1;exitX=0.135;exitY=0;exitDx=0;exitDy=0;entryX=0.31;entryY=1.062;entryDx=0;entryDy=0;entryPerimeter=0;movable=1;resizable=1;rotatable=1;deletable=1;editable=1;connectable=1;exitPerimeter=0;" edge="1" source="195" target="177" parent="1">
                    <mxGeometry width="160" relative="1" as="geometry">
                        <mxPoint x="490" y="1260" as="sourcePoint"/>
                        <mxPoint x="490.79999999999995" y="1134.884" as="targetPoint"/>
                    </mxGeometry>
                </mxCell>
                <mxCell id="179" value="" style="line;strokeWidth=1;fillColor=none;align=left;verticalAlign=middle;spacingTop=-1;spacingLeft=3;spacingRight=3;rotatable=1;labelPosition=right;points=[];portConstraint=eastwest;strokeColor=inherit;movable=1;resizable=1;deletable=1;editable=1;connectable=1;container=0;" vertex="1" parent="1">
                    <mxGeometry x="410" y="1100" width="160" height="8" as="geometry"/>
                </mxCell>
                <mxCell id="180" value="ProductA" style="swimlane;fontStyle=1;align=center;verticalAlign=top;childLayout=stackLayout;horizontal=1;startSize=26;horizontalStack=0;resizeParent=1;resizeParentMax=0;resizeLast=0;collapsible=1;marginBottom=0;" vertex="1" parent="1">
                    <mxGeometry x="780" y="1260" width="160" height="60" as="geometry"/>
                </mxCell>
                <mxCell id="181" value="" style="line;strokeWidth=1;fillColor=none;align=left;verticalAlign=middle;spacingTop=-1;spacingLeft=3;spacingRight=3;rotatable=0;labelPosition=right;points=[];portConstraint=eastwest;strokeColor=inherit;" vertex="1" parent="180">
                    <mxGeometry y="26" width="160" height="8" as="geometry"/>
                </mxCell>
                <mxCell id="182" value="+ method(type): type" style="text;strokeColor=none;fillColor=none;align=left;verticalAlign=top;spacingLeft=4;spacingRight=4;overflow=hidden;rotatable=0;points=[[0,0.5],[1,0.5]];portConstraint=eastwest;" vertex="1" parent="180">
                    <mxGeometry y="34" width="160" height="26" as="geometry"/>
                </mxCell>
                <mxCell id="183" value="ProductB" style="swimlane;fontStyle=1;align=center;verticalAlign=top;childLayout=stackLayout;horizontal=1;startSize=26;horizontalStack=0;resizeParent=1;resizeParentMax=0;resizeLast=0;collapsible=1;marginBottom=0;" vertex="1" parent="1">
                    <mxGeometry x="760" y="1340" width="160" height="60" as="geometry"/>
                </mxCell>
                <mxCell id="184" value="" style="line;strokeWidth=1;fillColor=none;align=left;verticalAlign=middle;spacingTop=-1;spacingLeft=3;spacingRight=3;rotatable=0;labelPosition=right;points=[];portConstraint=eastwest;strokeColor=inherit;" vertex="1" parent="183">
                    <mxGeometry y="26" width="160" height="8" as="geometry"/>
                </mxCell>
                <mxCell id="185" value="+ method(type): type" style="text;strokeColor=none;fillColor=none;align=left;verticalAlign=top;spacingLeft=4;spacingRight=4;overflow=hidden;rotatable=0;points=[[0,0.5],[1,0.5]];portConstraint=eastwest;" vertex="1" parent="183">
                    <mxGeometry y="34" width="160" height="26" as="geometry"/>
                </mxCell>
                <mxCell id="186" value="&lt;&lt;Interface&gt;&gt;&#10;IProduct" style="swimlane;fontStyle=1;align=center;verticalAlign=top;childLayout=stackLayout;horizontal=1;startSize=40;horizontalStack=0;resizeParent=1;resizeParentMax=0;resizeLast=0;collapsible=1;marginBottom=0;strokeColor=#39D40B;fillColor=none;" vertex="1" parent="1">
                    <mxGeometry x="760" y="1086" width="160" height="74" as="geometry"/>
                </mxCell>
                <mxCell id="187" value="" style="line;strokeWidth=1;fillColor=none;align=left;verticalAlign=middle;spacingTop=-1;spacingLeft=3;spacingRight=3;rotatable=0;labelPosition=right;points=[];portConstraint=eastwest;strokeColor=inherit;" vertex="1" parent="186">
                    <mxGeometry y="40" width="160" height="8" as="geometry"/>
                </mxCell>
                <mxCell id="188" value="+ method(type): type" style="text;strokeColor=none;fillColor=none;align=left;verticalAlign=top;spacingLeft=4;spacingRight=4;overflow=hidden;rotatable=0;points=[[0,0.5],[1,0.5]];portConstraint=eastwest;" vertex="1" parent="186">
                    <mxGeometry y="48" width="160" height="26" as="geometry"/>
                </mxCell>
                <mxCell id="189" value="" style="endArrow=block;dashed=1;endFill=0;endSize=12;html=1;entryX=0.076;entryY=1.093;entryDx=0;entryDy=0;entryPerimeter=0;movable=1;resizable=1;rotatable=1;deletable=1;editable=1;connectable=1;exitX=0.072;exitY=0.002;exitDx=0;exitDy=0;exitPerimeter=0;" edge="1" source="183" target="188" parent="1">
                    <mxGeometry width="160" relative="1" as="geometry">
                        <mxPoint x="870.48" y="1247.35" as="sourcePoint"/>
                        <mxPoint x="870" y="1160.002" as="targetPoint"/>
                    </mxGeometry>
                </mxCell>
                <mxCell id="190" value="Implement" style="edgeLabel;html=1;align=center;verticalAlign=middle;resizable=1;points=[];movable=1;rotatable=1;deletable=1;editable=1;connectable=1;container=0;" vertex="1" connectable="0" parent="189">
                    <mxGeometry x="-0.1765" relative="1" as="geometry">
                        <mxPoint y="-25" as="offset"/>
                    </mxGeometry>
                </mxCell>
                <mxCell id="191" value="FactoryB" style="swimlane;fontStyle=1;align=center;verticalAlign=top;childLayout=stackLayout;horizontal=1;startSize=26;horizontalStack=0;resizeParent=1;resizeParentMax=0;resizeLast=0;collapsible=1;marginBottom=0;strokeColor=#3399FF;" vertex="1" parent="1">
                    <mxGeometry x="390" y="1340" width="160" height="60" as="geometry"/>
                </mxCell>
                <mxCell id="192" value="" style="line;strokeWidth=1;fillColor=none;align=left;verticalAlign=middle;spacingTop=-1;spacingLeft=3;spacingRight=3;rotatable=0;labelPosition=right;points=[];portConstraint=eastwest;strokeColor=inherit;" vertex="1" parent="191">
                    <mxGeometry y="26" width="160" height="8" as="geometry"/>
                </mxCell>
                <mxCell id="193" value="+CreateProduct() : IProduct" style="text;strokeColor=none;fillColor=none;align=left;verticalAlign=top;spacingLeft=4;spacingRight=4;overflow=hidden;rotatable=0;points=[[0,0.5],[1,0.5]];portConstraint=eastwest;" vertex="1" parent="191">
                    <mxGeometry y="34" width="160" height="26" as="geometry"/>
                </mxCell>
                <mxCell id="194" value="Extends" style="endArrow=block;endSize=16;endFill=0;html=1;movable=1;resizable=1;rotatable=1;deletable=1;editable=1;connectable=1;exitX=0.202;exitY=-0.013;exitDx=0;exitDy=0;exitPerimeter=0;" edge="1" source="191" parent="1">
                    <mxGeometry width="160" relative="1" as="geometry">
                        <mxPoint x="430" y="1340" as="sourcePoint"/>
                        <mxPoint x="421.9999999999998" y="1140" as="targetPoint"/>
                    </mxGeometry>
                </mxCell>
                <mxCell id="195" value="FactoryA" style="swimlane;fontStyle=1;align=center;verticalAlign=top;childLayout=stackLayout;horizontal=1;startSize=26;horizontalStack=0;resizeParent=1;resizeParentMax=0;resizeLast=0;collapsible=1;marginBottom=0;strokeColor=#3399FF;" vertex="1" parent="1">
                    <mxGeometry x="440" y="1260" width="160" height="60" as="geometry"/>
                </mxCell>
                <mxCell id="196" value="" style="line;strokeWidth=1;fillColor=none;align=left;verticalAlign=middle;spacingTop=-1;spacingLeft=3;spacingRight=3;rotatable=0;labelPosition=right;points=[];portConstraint=eastwest;strokeColor=inherit;" vertex="1" parent="195">
                    <mxGeometry y="26" width="160" height="8" as="geometry"/>
                </mxCell>
                <mxCell id="197" value="+CreateProduct() : IProduct" style="text;strokeColor=none;fillColor=none;align=left;verticalAlign=top;spacingLeft=4;spacingRight=4;overflow=hidden;rotatable=0;points=[[0,0.5],[1,0.5]];portConstraint=eastwest;" vertex="1" parent="195">
                    <mxGeometry y="34" width="160" height="26" as="geometry"/>
                </mxCell>
                <mxCell id="198" value="client" style="html=1;strokeColor=#FFFFFF;fillColor=none;" vertex="1" parent="1">
                    <mxGeometry x="70" y="1070" width="110" height="50" as="geometry"/>
                </mxCell>
                <mxCell id="199" value="&lt;font style=&quot;font-size: 24px;&quot;&gt;Factory Method Design Pattern&lt;/font&gt;" style="text;html=1;strokeColor=#BD7000;fillColor=#f0a30a;align=center;verticalAlign=middle;whiteSpace=wrap;rounded=0;movable=1;resizable=1;rotatable=1;deletable=1;editable=1;connectable=1;fontColor=#000000;container=0;" vertex="1" parent="1">
                    <mxGeometry x="80" y="880" width="370" height="30" as="geometry"/>
                </mxCell>
                <mxCell id="229" value="&lt;font style=&quot;font-size: 24px;&quot;&gt;Simple Factory Pattern&amp;nbsp;&lt;/font&gt;" style="text;html=1;strokeColor=#BD7000;fillColor=#f0a30a;align=center;verticalAlign=middle;whiteSpace=wrap;rounded=0;movable=1;resizable=1;rotatable=1;deletable=1;editable=1;connectable=1;fontColor=#000000;container=0;" vertex="1" parent="1">
                    <mxGeometry x="50" y="1790" width="370" height="30" as="geometry"/>
                </mxCell>
                <mxCell id="230" value="&lt;span style=&quot;font-family: D-DINExp, &amp;quot;DM Sans&amp;quot;, -apple-system, BlinkMacSystemFont, &amp;quot;Segoe UI&amp;quot;, Roboto, &amp;quot;Helvetica Neue&amp;quot;, Arial, &amp;quot;Noto Sans&amp;quot;, sans-serif, &amp;quot;Apple Color Emoji&amp;quot;, &amp;quot;Segoe UI Emoji&amp;quot;, &amp;quot;Segoe UI Symbol&amp;quot;, &amp;quot;Noto Color Emoji&amp;quot;; font-size: 14px;&quot;&gt;&lt;font color=&quot;#ffffff&quot;&gt;A pattern that provides a way to create objects without specifying the exact class of the object that will be created.&lt;br&gt;&amp;nbsp;It is often used to encapsulate object creation in a single class, making it easier to manage and modify.&lt;/font&gt;&lt;/span&gt;" style="text;html=1;align=left;verticalAlign=middle;resizable=0;points=[];autosize=1;strokeColor=none;fillColor=none;" vertex="1" parent="1">
                    <mxGeometry x="60" y="1830" width="730" height="50" as="geometry"/>
                </mxCell>
                <mxCell id="248" value="&lt;font style=&quot;font-size: 14px;&quot;&gt;&amp;nbsp;provides an interface for creating families of related or dependent objects without specifying their concrete classes&lt;/font&gt;" style="text;html=1;align=center;verticalAlign=middle;resizable=0;points=[];autosize=1;strokeColor=none;fillColor=none;" vertex="1" parent="1">
                    <mxGeometry x="10" y="60" width="730" height="30" as="geometry"/>
                </mxCell>
                <mxCell id="240" value="SimpleFactory" style="swimlane;fontStyle=1;align=center;verticalAlign=top;childLayout=stackLayout;horizontal=1;startSize=26;horizontalStack=0;resizeParent=1;resizeParentMax=0;resizeLast=0;collapsible=1;marginBottom=0;fillColor=#1ba1e2;fontColor=#ffffff;strokeColor=#006EAF;" vertex="1" parent="1">
                    <mxGeometry x="340" y="1940" width="210" height="60" as="geometry"/>
                </mxCell>
                <mxCell id="241" value="" style="line;strokeWidth=1;fillColor=none;align=left;verticalAlign=middle;spacingTop=-1;spacingLeft=3;spacingRight=3;rotatable=0;labelPosition=right;points=[];portConstraint=eastwest;strokeColor=inherit;" vertex="1" parent="240">
                    <mxGeometry y="26" width="210" height="8" as="geometry"/>
                </mxCell>
                <mxCell id="242" value="CreateProduct(string type) :IProduct" style="text;strokeColor=none;fillColor=none;align=left;verticalAlign=top;spacingLeft=4;spacingRight=4;overflow=hidden;rotatable=0;points=[[0,0.5],[1,0.5]];portConstraint=eastwest;" vertex="1" parent="240">
                    <mxGeometry y="34" width="210" height="26" as="geometry"/>
                </mxCell>
                <mxCell id="244" value="Use" style="endArrow=open;endSize=12;dashed=1;html=1;movable=1;resizable=1;rotatable=1;deletable=1;editable=1;connectable=1;exitX=1.033;exitY=0.634;exitDx=0;exitDy=0;exitPerimeter=0;" edge="1" parent="1" source="272">
                    <mxGeometry width="160" relative="1" as="geometry">
                        <mxPoint x="220" y="1966.5" as="sourcePoint"/>
                        <mxPoint x="340" y="1970" as="targetPoint"/>
                    </mxGeometry>
                </mxCell>
                <mxCell id="245" value="" style="endArrow=block;dashed=1;endFill=0;endSize=12;html=1;movable=1;resizable=1;rotatable=1;deletable=1;editable=1;connectable=1;" edge="1" parent="1">
                    <mxGeometry width="160" relative="1" as="geometry">
                        <mxPoint x="560" y="1967" as="sourcePoint"/>
                        <mxPoint x="700" y="1966.5" as="targetPoint"/>
                    </mxGeometry>
                </mxCell>
                <mxCell id="246" value="create" style="edgeLabel;html=1;align=center;verticalAlign=middle;resizable=1;points=[];movable=1;rotatable=1;deletable=1;editable=1;connectable=1;container=0;" vertex="1" connectable="0" parent="245">
                    <mxGeometry x="-0.2711" y="1" relative="1" as="geometry">
                        <mxPoint as="offset"/>
                    </mxGeometry>
                </mxCell>
                <mxCell id="247" value="&lt;font style=&quot;font-size: 14px;&quot;&gt;&lt;font color=&quot;#66b2ff&quot;&gt;var factory = new SimpleFactory();&lt;/font&gt;&lt;br&gt;&lt;font color=&quot;#80ff00&quot;&gt;IProduct p&lt;/font&gt; =&lt;font color=&quot;#66b2ff&quot;&gt; factory.CreateProduct(&quot;A&quot;);&lt;/font&gt;&lt;/font&gt;" style="text;html=1;align=left;verticalAlign=middle;resizable=0;points=[];autosize=1;strokeColor=none;fillColor=none;" vertex="1" parent="1">
                    <mxGeometry x="80" y="2135" width="270" height="50" as="geometry"/>
                </mxCell>
                <mxCell id="250" value="" style="endArrow=block;dashed=1;endFill=0;endSize=12;html=1;entryX=0.36;entryY=1.089;entryDx=0;entryDy=0;entryPerimeter=0;movable=1;resizable=1;rotatable=1;deletable=1;editable=1;connectable=1;exitX=0.177;exitY=-0.036;exitDx=0;exitDy=0;exitPerimeter=0;" edge="1" parent="1" source="252">
                    <mxGeometry width="160" relative="1" as="geometry">
                        <mxPoint x="750" y="2077.69" as="sourcePoint"/>
                        <mxPoint x="757.6000000000001" y="1990.004" as="targetPoint"/>
                    </mxGeometry>
                </mxCell>
                <mxCell id="251" value="Implement" style="edgeLabel;html=1;align=center;verticalAlign=middle;resizable=1;points=[];movable=1;rotatable=1;deletable=1;editable=1;connectable=1;container=0;" vertex="1" connectable="0" parent="250">
                    <mxGeometry x="-0.1765" relative="1" as="geometry">
                        <mxPoint x="7" y="-25" as="offset"/>
                    </mxGeometry>
                </mxCell>
                <mxCell id="252" value="ProductA" style="swimlane;fontStyle=1;align=center;verticalAlign=top;childLayout=stackLayout;horizontal=1;startSize=26;horizontalStack=0;resizeParent=1;resizeParentMax=0;resizeLast=0;collapsible=1;marginBottom=0;" vertex="1" parent="1">
                    <mxGeometry x="730" y="2083.69" width="160" height="34" as="geometry"/>
                </mxCell>
                <mxCell id="253" value="" style="line;strokeWidth=1;fillColor=none;align=left;verticalAlign=middle;spacingTop=-1;spacingLeft=3;spacingRight=3;rotatable=0;labelPosition=right;points=[];portConstraint=eastwest;strokeColor=inherit;" vertex="1" parent="252">
                    <mxGeometry y="26" width="160" height="8" as="geometry"/>
                </mxCell>
                <mxCell id="255" value="&lt;&lt;Interface&gt;&gt;&#10;IProduct" style="swimlane;fontStyle=1;align=center;verticalAlign=top;childLayout=stackLayout;horizontal=1;startSize=40;horizontalStack=0;resizeParent=1;resizeParentMax=0;resizeLast=0;collapsible=1;marginBottom=0;strokeColor=#39D40B;fillColor=none;" vertex="1" parent="1">
                    <mxGeometry x="700" y="1940" width="160" height="48" as="geometry"/>
                </mxCell>
                <mxCell id="256" value="" style="line;strokeWidth=1;fillColor=none;align=left;verticalAlign=middle;spacingTop=-1;spacingLeft=3;spacingRight=3;rotatable=0;labelPosition=right;points=[];portConstraint=eastwest;strokeColor=inherit;" vertex="1" parent="255">
                    <mxGeometry y="40" width="160" height="8" as="geometry"/>
                </mxCell>
                <mxCell id="264" value="" style="group" vertex="1" connectable="0" parent="1">
                    <mxGeometry x="70" y="2340" width="474" height="100" as="geometry"/>
                </mxCell>
                <mxCell id="249" value="var product = new ProductA();" style="text;html=1;align=left;verticalAlign=middle;resizable=0;points=[];autosize=1;strokeColor=none;fillColor=none;" vertex="1" parent="264">
                    <mxGeometry width="180" height="30" as="geometry"/>
                </mxCell>
                <mxCell id="259" value="ProductA" style="swimlane;fontStyle=1;align=center;verticalAlign=top;childLayout=stackLayout;horizontal=1;startSize=26;horizontalStack=0;resizeParent=1;resizeParentMax=0;resizeLast=0;collapsible=1;marginBottom=0;" vertex="1" parent="264">
                    <mxGeometry x="314" y="48" width="160" height="34" as="geometry"/>
                </mxCell>
                <mxCell id="260" value="" style="line;strokeWidth=1;fillColor=none;align=left;verticalAlign=middle;spacingTop=-1;spacingLeft=3;spacingRight=3;rotatable=0;labelPosition=right;points=[];portConstraint=eastwest;strokeColor=inherit;" vertex="1" parent="259">
                    <mxGeometry y="26" width="160" height="8" as="geometry"/>
                </mxCell>
                <mxCell id="262" value="Use" style="endArrow=open;endSize=12;dashed=1;html=1;movable=1;resizable=1;rotatable=1;deletable=1;editable=1;connectable=1;entryX=-0.014;entryY=0.413;entryDx=0;entryDy=0;exitX=1;exitY=0.5;exitDx=0;exitDy=0;entryPerimeter=0;" edge="1" parent="264" source="263" target="259">
                    <mxGeometry width="160" relative="1" as="geometry">
                        <mxPoint x="135" y="57" as="sourcePoint"/>
                        <mxPoint x="255" y="53.5" as="targetPoint"/>
                    </mxGeometry>
                </mxCell>
                <mxCell id="263" value="client" style="html=1;strokeColor=#FFFFFF;fillColor=none;" vertex="1" parent="264">
                    <mxGeometry y="40" width="110" height="50" as="geometry"/>
                </mxCell>
                <mxCell id="265" value="" style="group;movable=0;resizable=0;rotatable=0;deletable=0;editable=0;connectable=0;" vertex="1" connectable="0" parent="1">
                    <mxGeometry x="50" y="136" width="980" height="394" as="geometry"/>
                </mxCell>
                <mxCell id="105" value="Use" style="endArrow=open;endSize=12;dashed=1;html=1;movable=1;resizable=1;rotatable=1;deletable=1;editable=1;connectable=1;exitX=1;exitY=0.5;exitDx=0;exitDy=0;" parent="265" edge="1" source="167">
                    <mxGeometry width="160" relative="1" as="geometry">
                        <mxPoint x="180" y="70.5" as="sourcePoint"/>
                        <mxPoint x="340" y="70.5" as="targetPoint"/>
                    </mxGeometry>
                </mxCell>
                <mxCell id="97" value="" style="endArrow=block;dashed=1;endFill=0;endSize=12;html=1;entryX=0.334;entryY=0.971;entryDx=0;entryDy=0;entryPerimeter=0;movable=1;resizable=1;rotatable=1;deletable=1;editable=1;connectable=1;exitX=0.177;exitY=-0.036;exitDx=0;exitDy=0;exitPerimeter=0;" parent="265" target="153" edge="1">
                    <mxGeometry width="160" relative="1" as="geometry">
                        <mxPoint x="693.0100000000002" y="225.84000000000003" as="sourcePoint"/>
                        <mxPoint x="699.52" y="130.652" as="targetPoint"/>
                    </mxGeometry>
                </mxCell>
                <mxCell id="102" value="Implement" style="edgeLabel;html=1;align=center;verticalAlign=middle;resizable=1;points=[];movable=1;rotatable=1;deletable=1;editable=1;connectable=1;container=0;" parent="97" vertex="1" connectable="0">
                    <mxGeometry x="-0.1765" relative="1" as="geometry">
                        <mxPoint as="offset"/>
                    </mxGeometry>
                </mxCell>
                <mxCell id="116" value="&lt;font style=&quot;&quot;&gt;&lt;br&gt;&lt;br&gt;&lt;div style=&quot;font-size: 14px; text-align: left;&quot;&gt;&lt;span style=&quot;background-color: initial;&quot;&gt;&lt;font color=&quot;#66b2ff&quot;&gt;Factory factory = new LightFactory();&lt;/font&gt;&lt;/span&gt;&lt;br&gt;&lt;/div&gt;&lt;div style=&quot;font-size: 14px; text-align: left;&quot;&gt;&lt;font style=&quot;background-color: initial;&quot; color=&quot;#33ff33&quot;&gt;IButton btn&lt;/font&gt;&lt;font style=&quot;background-color: initial;&quot; color=&quot;#ffffff&quot;&gt;&amp;nbsp; &amp;nbsp; &amp;nbsp; &amp;nbsp;=&lt;/font&gt;&lt;span style=&quot;background-color: initial;&quot;&gt;&amp;nbsp;&lt;/span&gt;&lt;span style=&quot;color: rgb(102, 178, 255);&quot;&gt;factory&lt;/span&gt;&lt;font style=&quot;background-color: initial;&quot; color=&quot;#66b2ff&quot;&gt;.CreateButton();&lt;/font&gt;&lt;br&gt;&lt;/div&gt;&lt;div style=&quot;font-size: 14px; text-align: left;&quot;&gt;&lt;font style=&quot;background-color: initial;&quot; color=&quot;#33ff33&quot;&gt;ICheckBox chk&lt;/font&gt;&lt;font style=&quot;background-color: initial;&quot; color=&quot;#ffffff&quot;&gt;&amp;nbsp;=&lt;/font&gt;&lt;span style=&quot;background-color: initial;&quot;&gt;&amp;nbsp;&lt;/span&gt;&lt;span style=&quot;color: rgb(102, 178, 255);&quot;&gt;factory&lt;/span&gt;&lt;font style=&quot;background-color: initial;&quot; color=&quot;#66b2ff&quot;&gt;.CreateCheckBox();&lt;/font&gt;&lt;font style=&quot;background-color: initial;&quot; color=&quot;#66b2ff&quot;&gt;&lt;br&gt;&lt;/font&gt;&lt;/div&gt;&lt;/font&gt;" style="text;strokeColor=none;align=center;fillColor=none;html=1;verticalAlign=middle;whiteSpace=wrap;rounded=0;fontColor=#FF66B3;movable=1;resizable=1;rotatable=1;deletable=1;editable=1;connectable=1;container=0;" parent="265" vertex="1">
                    <mxGeometry y="128" width="290" height="80" as="geometry"/>
                </mxCell>
                <mxCell id="88" value="&lt;&lt;Interface&gt;&gt;&#10;Factory" style="swimlane;fontStyle=1;align=center;verticalAlign=top;childLayout=stackLayout;horizontal=1;startSize=40;horizontalStack=0;resizeParent=1;resizeParentMax=0;resizeLast=0;collapsible=1;marginBottom=0;fillColor=#1ba1e2;fontColor=#ffffff;strokeColor=#FFFFFF;movable=1;resizable=1;rotatable=1;deletable=1;editable=1;connectable=1;container=0;" parent="265" vertex="1">
                    <mxGeometry x="340" y="34" width="193" height="88" as="geometry"/>
                </mxCell>
                <mxCell id="139" value="" style="line;strokeWidth=1;fillColor=none;align=left;verticalAlign=middle;spacingTop=-1;spacingLeft=3;spacingRight=3;rotatable=1;labelPosition=right;points=[];portConstraint=eastwest;strokeColor=inherit;movable=1;resizable=1;deletable=1;editable=1;connectable=1;container=0;" parent="88" vertex="1">
                    <mxGeometry y="40" width="193" height="8" as="geometry"/>
                </mxCell>
                <mxCell id="137" value="&lt;font color=&quot;#66b2ff&quot;&gt;+CreateButton() :&lt;/font&gt; IButton&lt;br&gt;&lt;font color=&quot;#66b2ff&quot;&gt;+CreateCheckBox() :&lt;/font&gt;&amp;nbsp;ICheckBox" style="text;html=1;align=left;verticalAlign=middle;resizable=1;points=[];autosize=1;strokeColor=none;fillColor=none;fontSize=12;fontColor=#33FF33;movable=1;rotatable=1;deletable=1;editable=1;connectable=1;" parent="88" vertex="1">
                    <mxGeometry y="48" width="193" height="40" as="geometry"/>
                </mxCell>
                <mxCell id="90" value="" style="line;strokeWidth=1;fillColor=none;align=left;verticalAlign=middle;spacingTop=-1;spacingLeft=3;spacingRight=3;rotatable=1;labelPosition=right;points=[];portConstraint=eastwest;strokeColor=inherit;movable=1;resizable=1;deletable=1;editable=1;connectable=1;container=0;" parent="265" vertex="1">
                    <mxGeometry x="340" y="74" width="160" height="8" as="geometry"/>
                </mxCell>
                <mxCell id="150" value="&lt;&lt;Interface&gt;&gt;&#10;IButton" style="swimlane;fontStyle=1;align=center;verticalAlign=top;childLayout=stackLayout;horizontal=1;startSize=40;horizontalStack=0;resizeParent=1;resizeParentMax=0;resizeLast=0;collapsible=1;marginBottom=0;strokeColor=#39D40B;fillColor=none;movable=1;resizable=1;rotatable=1;deletable=1;editable=1;connectable=1;" vertex="1" parent="265">
                    <mxGeometry x="650" y="54" width="130" height="74" as="geometry"/>
                </mxCell>
                <mxCell id="152" value="" style="line;strokeWidth=1;fillColor=none;align=left;verticalAlign=middle;spacingTop=-1;spacingLeft=3;spacingRight=3;rotatable=1;labelPosition=right;points=[];portConstraint=eastwest;strokeColor=inherit;movable=1;resizable=1;deletable=1;editable=1;connectable=1;" vertex="1" parent="150">
                    <mxGeometry y="40" width="130" height="8" as="geometry"/>
                </mxCell>
                <mxCell id="153" value="+ Render() :void" style="text;strokeColor=none;fillColor=none;align=left;verticalAlign=top;spacingLeft=4;spacingRight=4;overflow=hidden;rotatable=1;points=[[0,0.5],[1,0.5]];portConstraint=eastwest;movable=1;resizable=1;deletable=1;editable=1;connectable=1;" vertex="1" parent="150">
                    <mxGeometry y="48" width="130" height="26" as="geometry"/>
                </mxCell>
                <mxCell id="114" value="" style="endArrow=block;dashed=1;endFill=0;endSize=12;html=1;movable=1;resizable=1;rotatable=1;deletable=1;editable=1;connectable=1;entryX=0;entryY=0.189;entryDx=0;entryDy=0;entryPerimeter=0;exitX=1.02;exitY=0.407;exitDx=0;exitDy=0;exitPerimeter=0;" parent="265" edge="1" target="150" source="88">
                    <mxGeometry width="160" relative="1" as="geometry">
                        <mxPoint x="500" y="70.5" as="sourcePoint"/>
                        <mxPoint x="660" y="70.5" as="targetPoint"/>
                    </mxGeometry>
                </mxCell>
                <mxCell id="115" value="create" style="edgeLabel;html=1;align=center;verticalAlign=middle;resizable=1;points=[];movable=1;rotatable=1;deletable=1;editable=1;connectable=1;container=0;" parent="114" vertex="1" connectable="0">
                    <mxGeometry x="-0.2711" y="1" relative="1" as="geometry">
                        <mxPoint as="offset"/>
                    </mxGeometry>
                </mxCell>
                <mxCell id="154" value="" style="endArrow=block;dashed=1;endFill=0;endSize=12;html=1;entryX=0.076;entryY=1.093;entryDx=0;entryDy=0;entryPerimeter=0;movable=1;resizable=1;rotatable=1;deletable=1;editable=1;connectable=1;exitX=0.072;exitY=0.002;exitDx=0;exitDy=0;exitPerimeter=0;" edge="1" parent="265" target="153">
                    <mxGeometry width="160" relative="1" as="geometry">
                        <mxPoint x="659.3600000000001" y="334.12" as="sourcePoint"/>
                        <mxPoint x="760" y="128.002" as="targetPoint"/>
                    </mxGeometry>
                </mxCell>
                <mxCell id="155" value="Implement" style="edgeLabel;html=1;align=center;verticalAlign=middle;resizable=1;points=[];movable=1;rotatable=1;deletable=1;editable=1;connectable=1;container=0;" vertex="1" connectable="0" parent="154">
                    <mxGeometry x="-0.1765" relative="1" as="geometry">
                        <mxPoint y="-86" as="offset"/>
                    </mxGeometry>
                </mxCell>
                <mxCell id="158" value="DarkFactory" style="swimlane;fontStyle=1;align=center;verticalAlign=top;childLayout=stackLayout;horizontal=1;startSize=26;horizontalStack=0;resizeParent=1;resizeParentMax=0;resizeLast=0;collapsible=1;marginBottom=0;strokeColor=#007FFF;movable=1;resizable=1;rotatable=1;deletable=1;editable=1;connectable=1;" vertex="1" parent="265">
                    <mxGeometry x="310" y="319" width="190" height="70" as="geometry"/>
                </mxCell>
                <mxCell id="160" value="" style="line;strokeWidth=1;fillColor=none;align=left;verticalAlign=middle;spacingTop=-1;spacingLeft=3;spacingRight=3;rotatable=1;labelPosition=right;points=[];portConstraint=eastwest;strokeColor=inherit;movable=1;resizable=1;deletable=1;editable=1;connectable=1;" vertex="1" parent="158">
                    <mxGeometry y="26" width="190" height="8" as="geometry"/>
                </mxCell>
                <mxCell id="161" value="+CreateButton() : IButton&#10;+CreateCheckBox() : ICheckBox" style="text;strokeColor=none;fillColor=none;align=left;verticalAlign=top;spacingLeft=4;spacingRight=4;overflow=hidden;rotatable=1;points=[[0,0.5],[1,0.5]];portConstraint=eastwest;movable=1;resizable=1;deletable=1;editable=1;connectable=1;" vertex="1" parent="158">
                    <mxGeometry y="34" width="190" height="36" as="geometry"/>
                </mxCell>
                <mxCell id="162" value="LightFactory" style="swimlane;fontStyle=1;align=center;verticalAlign=top;childLayout=stackLayout;horizontal=1;startSize=26;horizontalStack=0;resizeParent=1;resizeParentMax=0;resizeLast=0;collapsible=1;marginBottom=0;strokeColor=#007FFF;movable=1;resizable=1;rotatable=1;deletable=1;editable=1;connectable=1;" vertex="1" parent="265">
                    <mxGeometry x="380" y="234" width="190" height="70" as="geometry"/>
                </mxCell>
                <mxCell id="163" value="" style="line;strokeWidth=1;fillColor=none;align=left;verticalAlign=middle;spacingTop=-1;spacingLeft=3;spacingRight=3;rotatable=1;labelPosition=right;points=[];portConstraint=eastwest;strokeColor=inherit;movable=1;resizable=1;deletable=1;editable=1;connectable=1;" vertex="1" parent="162">
                    <mxGeometry y="26" width="190" height="8" as="geometry"/>
                </mxCell>
                <mxCell id="164" value="+CreateButton() : IButton&#10;+CreateCheckBox() : ICheckBox" style="text;strokeColor=none;fillColor=none;align=left;verticalAlign=top;spacingLeft=4;spacingRight=4;overflow=hidden;rotatable=1;points=[[0,0.5],[1,0.5]];portConstraint=eastwest;movable=1;resizable=1;deletable=1;editable=1;connectable=1;" vertex="1" parent="162">
                    <mxGeometry y="34" width="190" height="36" as="geometry"/>
                </mxCell>
                <mxCell id="167" value="client" style="html=1;strokeColor=#FFFFFF;fillColor=none;movable=1;resizable=1;rotatable=1;deletable=1;editable=1;connectable=1;" vertex="1" parent="265">
                    <mxGeometry y="44" width="110" height="50" as="geometry"/>
                </mxCell>
                <mxCell id="202" value="LightCheckBox" style="swimlane;fontStyle=1;align=center;verticalAlign=top;childLayout=stackLayout;horizontal=1;startSize=26;horizontalStack=0;resizeParent=1;resizeParentMax=0;resizeLast=0;collapsible=1;marginBottom=0;fillColor=none;movable=1;resizable=1;rotatable=1;deletable=1;editable=1;connectable=1;" vertex="1" parent="265">
                    <mxGeometry x="850" y="204" width="130" height="60" as="geometry"/>
                </mxCell>
                <mxCell id="203" value="" style="line;strokeWidth=1;fillColor=none;align=left;verticalAlign=middle;spacingTop=-1;spacingLeft=3;spacingRight=3;rotatable=1;labelPosition=right;points=[];portConstraint=eastwest;strokeColor=inherit;movable=1;resizable=1;deletable=1;editable=1;connectable=1;" vertex="1" parent="202">
                    <mxGeometry y="26" width="130" height="8" as="geometry"/>
                </mxCell>
                <mxCell id="204" value="+ Render() :void" style="text;strokeColor=none;fillColor=none;align=left;verticalAlign=top;spacingLeft=4;spacingRight=4;overflow=hidden;rotatable=1;points=[[0,0.5],[1,0.5]];portConstraint=eastwest;movable=1;resizable=1;deletable=1;editable=1;connectable=1;" vertex="1" parent="202">
                    <mxGeometry y="34" width="130" height="26" as="geometry"/>
                </mxCell>
                <mxCell id="208" value="&lt;&lt;Interface&gt;&gt;&#10;ICheckBox" style="swimlane;fontStyle=1;align=center;verticalAlign=top;childLayout=stackLayout;horizontal=1;startSize=40;horizontalStack=0;resizeParent=1;resizeParentMax=0;resizeLast=0;collapsible=1;marginBottom=0;strokeColor=#39D40B;fillColor=none;movable=1;resizable=1;rotatable=1;deletable=1;editable=1;connectable=1;" vertex="1" parent="265">
                    <mxGeometry x="830" width="130" height="74" as="geometry"/>
                </mxCell>
                <mxCell id="209" value="" style="line;strokeWidth=1;fillColor=none;align=left;verticalAlign=middle;spacingTop=-1;spacingLeft=3;spacingRight=3;rotatable=1;labelPosition=right;points=[];portConstraint=eastwest;strokeColor=inherit;movable=1;resizable=1;deletable=1;editable=1;connectable=1;" vertex="1" parent="208">
                    <mxGeometry y="40" width="130" height="8" as="geometry"/>
                </mxCell>
                <mxCell id="210" value="+ Render() :void" style="text;strokeColor=none;fillColor=none;align=left;verticalAlign=top;spacingLeft=4;spacingRight=4;overflow=hidden;rotatable=1;points=[[0,0.5],[1,0.5]];portConstraint=eastwest;movable=1;resizable=1;deletable=1;editable=1;connectable=1;" vertex="1" parent="208">
                    <mxGeometry y="48" width="130" height="26" as="geometry"/>
                </mxCell>
                <mxCell id="200" value="" style="endArrow=block;dashed=1;endFill=0;endSize=12;html=1;entryX=0.334;entryY=0.971;entryDx=0;entryDy=0;entryPerimeter=0;movable=1;resizable=1;rotatable=1;deletable=1;editable=1;connectable=1;exitX=0.177;exitY=-0.036;exitDx=0;exitDy=0;exitPerimeter=0;" edge="1" parent="265" source="202" target="210">
                    <mxGeometry width="160" relative="1" as="geometry">
                        <mxPoint x="880" y="164" as="sourcePoint"/>
                        <mxPoint x="879.52" y="76.65199999999999" as="targetPoint"/>
                    </mxGeometry>
                </mxCell>
                <mxCell id="201" value="Implement" style="edgeLabel;html=1;align=center;verticalAlign=middle;resizable=1;points=[];movable=1;rotatable=1;deletable=1;editable=1;connectable=1;container=0;" vertex="1" connectable="0" parent="200">
                    <mxGeometry x="-0.1765" relative="1" as="geometry">
                        <mxPoint as="offset"/>
                    </mxGeometry>
                </mxCell>
                <mxCell id="211" value="" style="endArrow=block;dashed=1;endFill=0;endSize=12;html=1;entryX=0.076;entryY=1.093;entryDx=0;entryDy=0;entryPerimeter=0;movable=1;resizable=1;rotatable=1;deletable=1;editable=1;connectable=1;exitX=0.072;exitY=0.002;exitDx=0;exitDy=0;exitPerimeter=0;" edge="1" parent="265" target="210">
                    <mxGeometry width="160" relative="1" as="geometry">
                        <mxPoint x="839.3600000000001" y="319.12" as="sourcePoint"/>
                        <mxPoint x="940" y="74.00200000000001" as="targetPoint"/>
                    </mxGeometry>
                </mxCell>
                <mxCell id="212" value="Implement" style="edgeLabel;html=1;align=center;verticalAlign=middle;resizable=1;points=[];movable=1;rotatable=1;deletable=1;editable=1;connectable=1;container=0;" vertex="1" connectable="0" parent="211">
                    <mxGeometry x="-0.1765" relative="1" as="geometry">
                        <mxPoint y="-97" as="offset"/>
                    </mxGeometry>
                </mxCell>
                <mxCell id="213" value="" style="endArrow=block;dashed=1;endFill=0;endSize=12;html=1;movable=1;resizable=1;rotatable=1;deletable=1;editable=1;connectable=1;entryX=-0.031;entryY=0.383;entryDx=0;entryDy=0;entryPerimeter=0;exitX=0.997;exitY=0.184;exitDx=0;exitDy=0;exitPerimeter=0;" edge="1" parent="265" source="88" target="208">
                    <mxGeometry width="160" relative="1" as="geometry">
                        <mxPoint x="550.0000000000002" y="44" as="sourcePoint"/>
                        <mxPoint x="700" y="41.48599999999999" as="targetPoint"/>
                    </mxGeometry>
                </mxCell>
                <mxCell id="214" value="create" style="edgeLabel;html=1;align=center;verticalAlign=middle;resizable=1;points=[];movable=1;rotatable=1;deletable=1;editable=1;connectable=1;container=0;" vertex="1" connectable="0" parent="213">
                    <mxGeometry x="-0.2711" y="1" relative="1" as="geometry">
                        <mxPoint as="offset"/>
                    </mxGeometry>
                </mxCell>
                <mxCell id="215" value="LightButton" style="swimlane;fontStyle=1;align=center;verticalAlign=top;childLayout=stackLayout;horizontal=1;startSize=26;horizontalStack=0;resizeParent=1;resizeParentMax=0;resizeLast=0;collapsible=1;marginBottom=0;fillColor=none;movable=1;resizable=1;rotatable=1;deletable=1;editable=1;connectable=1;" vertex="1" parent="265">
                    <mxGeometry x="670" y="224" width="130" height="60" as="geometry"/>
                </mxCell>
                <mxCell id="216" value="" style="line;strokeWidth=1;fillColor=none;align=left;verticalAlign=middle;spacingTop=-1;spacingLeft=3;spacingRight=3;rotatable=1;labelPosition=right;points=[];portConstraint=eastwest;strokeColor=inherit;movable=1;resizable=1;deletable=1;editable=1;connectable=1;" vertex="1" parent="215">
                    <mxGeometry y="26" width="130" height="8" as="geometry"/>
                </mxCell>
                <mxCell id="217" value="+ Render() :void" style="text;strokeColor=none;fillColor=none;align=left;verticalAlign=top;spacingLeft=4;spacingRight=4;overflow=hidden;rotatable=1;points=[[0,0.5],[1,0.5]];portConstraint=eastwest;movable=1;resizable=1;deletable=1;editable=1;connectable=1;" vertex="1" parent="215">
                    <mxGeometry y="34" width="130" height="26" as="geometry"/>
                </mxCell>
                <mxCell id="222" value="" style="endArrow=block;dashed=1;endFill=0;endSize=12;html=1;movable=1;resizable=1;rotatable=1;deletable=1;editable=1;connectable=1;" edge="1" parent="265">
                    <mxGeometry width="160" relative="1" as="geometry">
                        <mxPoint x="349" y="318" as="sourcePoint"/>
                        <mxPoint x="350" y="124" as="targetPoint"/>
                    </mxGeometry>
                </mxCell>
                <mxCell id="226" value="Implement" style="edgeLabel;html=1;align=center;verticalAlign=middle;resizable=1;points=[];movable=1;rotatable=1;deletable=1;editable=1;connectable=1;" vertex="1" connectable="0" parent="222">
                    <mxGeometry x="0.4223" relative="1" as="geometry">
                        <mxPoint as="offset"/>
                    </mxGeometry>
                </mxCell>
                <mxCell id="223" value="" style="endArrow=block;dashed=1;endFill=0;endSize=12;html=1;exitX=0.1;exitY=-0.018;exitDx=0;exitDy=0;exitPerimeter=0;movable=1;resizable=1;rotatable=1;deletable=1;editable=1;connectable=1;" edge="1" parent="265" source="162">
                    <mxGeometry width="160" relative="1" as="geometry">
                        <mxPoint x="399" y="224" as="sourcePoint"/>
                        <mxPoint x="399.17" y="122" as="targetPoint"/>
                    </mxGeometry>
                </mxCell>
                <mxCell id="225" value="Implement" style="edgeLabel;html=1;align=center;verticalAlign=middle;resizable=1;points=[];movable=1;rotatable=1;deletable=1;editable=1;connectable=1;" vertex="1" connectable="0" parent="223">
                    <mxGeometry x="0.3131" y="-1" relative="1" as="geometry">
                        <mxPoint as="offset"/>
                    </mxGeometry>
                </mxCell>
                <mxCell id="266" value="DarkButton" style="swimlane;fontStyle=1;align=center;verticalAlign=top;childLayout=stackLayout;horizontal=1;startSize=26;horizontalStack=0;resizeParent=1;resizeParentMax=0;resizeLast=0;collapsible=1;marginBottom=0;fillColor=none;movable=1;resizable=1;rotatable=1;deletable=1;editable=1;connectable=1;" vertex="1" parent="265">
                    <mxGeometry x="640" y="334" width="130" height="60" as="geometry"/>
                </mxCell>
                <mxCell id="267" value="" style="line;strokeWidth=1;fillColor=none;align=left;verticalAlign=middle;spacingTop=-1;spacingLeft=3;spacingRight=3;rotatable=1;labelPosition=right;points=[];portConstraint=eastwest;strokeColor=inherit;movable=1;resizable=1;deletable=1;editable=1;connectable=1;" vertex="1" parent="266">
                    <mxGeometry y="26" width="130" height="8" as="geometry"/>
                </mxCell>
                <mxCell id="268" value="+ Render() :void" style="text;strokeColor=none;fillColor=none;align=left;verticalAlign=top;spacingLeft=4;spacingRight=4;overflow=hidden;rotatable=1;points=[[0,0.5],[1,0.5]];portConstraint=eastwest;movable=1;resizable=1;deletable=1;editable=1;connectable=1;" vertex="1" parent="266">
                    <mxGeometry y="34" width="130" height="26" as="geometry"/>
                </mxCell>
                <mxCell id="269" value="DarkCheckBox" style="swimlane;fontStyle=1;align=center;verticalAlign=top;childLayout=stackLayout;horizontal=1;startSize=26;horizontalStack=0;resizeParent=1;resizeParentMax=0;resizeLast=0;collapsible=1;marginBottom=0;fillColor=none;movable=1;resizable=1;rotatable=1;deletable=1;editable=1;connectable=1;" vertex="1" parent="265">
                    <mxGeometry x="810" y="324" width="130" height="60" as="geometry"/>
                </mxCell>
                <mxCell id="270" value="" style="line;strokeWidth=1;fillColor=none;align=left;verticalAlign=middle;spacingTop=-1;spacingLeft=3;spacingRight=3;rotatable=1;labelPosition=right;points=[];portConstraint=eastwest;strokeColor=inherit;movable=1;resizable=1;deletable=1;editable=1;connectable=1;" vertex="1" parent="269">
                    <mxGeometry y="26" width="130" height="8" as="geometry"/>
                </mxCell>
                <mxCell id="271" value="+ Render() :void" style="text;strokeColor=none;fillColor=none;align=left;verticalAlign=top;spacingLeft=4;spacingRight=4;overflow=hidden;rotatable=1;points=[[0,0.5],[1,0.5]];portConstraint=eastwest;movable=1;resizable=1;deletable=1;editable=1;connectable=1;" vertex="1" parent="269">
                    <mxGeometry y="34" width="130" height="26" as="geometry"/>
                </mxCell>
                <mxCell id="272" value="client" style="html=1;strokeColor=#FFFFFF;fillColor=none;" vertex="1" parent="1">
                    <mxGeometry x="80" y="1940" width="110" height="50" as="geometry"/>
                </mxCell>
                <mxCell id="273" value="&lt;font style=&quot;font-size: 14px;&quot;&gt;&lt;br&gt;&lt;font color=&quot;#80ff00&quot;&gt;IProduct p&lt;/font&gt; =&lt;font color=&quot;#66b2ff&quot;&gt;&amp;nbsp;&lt;/font&gt;&lt;span style=&quot;color: rgb(102, 178, 255);&quot;&gt;SimpleFactory&lt;/span&gt;&lt;font color=&quot;#66b2ff&quot;&gt;.CreateProduct(&quot;A&quot;);&lt;/font&gt;&lt;/font&gt;" style="text;html=1;align=left;verticalAlign=middle;resizable=0;points=[];autosize=1;strokeColor=none;fillColor=none;" vertex="1" parent="1">
                    <mxGeometry x="79" y="2040" width="320" height="50" as="geometry"/>
                </mxCell>
                <mxCell id="274" value="Or" style="text;html=1;align=center;verticalAlign=middle;resizable=0;points=[];autosize=1;strokeColor=none;fillColor=none;" vertex="1" parent="1">
                    <mxGeometry x="70" y="2105" width="40" height="30" as="geometry"/>
                </mxCell>
                <mxCell id="279" value="" style="endArrow=block;dashed=1;endFill=0;endSize=12;html=1;movable=1;resizable=1;rotatable=1;deletable=1;editable=1;connectable=1;exitX=0.177;exitY=-0.036;exitDx=0;exitDy=0;exitPerimeter=0;" edge="1" source="281" parent="1">
                    <mxGeometry width="160" relative="1" as="geometry">
                        <mxPoint x="700" y="2167.69" as="sourcePoint"/>
                        <mxPoint x="710" y="1990" as="targetPoint"/>
                    </mxGeometry>
                </mxCell>
                <mxCell id="280" value="Implement" style="edgeLabel;html=1;align=center;verticalAlign=middle;resizable=1;points=[];movable=1;rotatable=1;deletable=1;editable=1;connectable=1;container=0;" vertex="1" connectable="0" parent="279">
                    <mxGeometry x="-0.1765" relative="1" as="geometry">
                        <mxPoint x="1" y="-32" as="offset"/>
                    </mxGeometry>
                </mxCell>
                <mxCell id="281" value="ProductB" style="swimlane;fontStyle=1;align=center;verticalAlign=top;childLayout=stackLayout;horizontal=1;startSize=26;horizontalStack=0;resizeParent=1;resizeParentMax=0;resizeLast=0;collapsible=1;marginBottom=0;" vertex="1" parent="1">
                    <mxGeometry x="680" y="2125" width="160" height="34" as="geometry"/>
                </mxCell>
                <mxCell id="282" value="" style="line;strokeWidth=1;fillColor=none;align=left;verticalAlign=middle;spacingTop=-1;spacingLeft=3;spacingRight=3;rotatable=0;labelPosition=right;points=[];portConstraint=eastwest;strokeColor=inherit;" vertex="1" parent="281">
                    <mxGeometry y="26" width="160" height="8" as="geometry"/>
                </mxCell>
            </root>
        </mxGraphModel>
    </diagram>
</mxfile>